<?xml version="1.0" encoding="UTF-8" standalone="no"?>
<svg
   xmlns:dc="http://purl.org/dc/elements/1.1/"
   xmlns:cc="http://creativecommons.org/ns#"
   xmlns:rdf="http://www.w3.org/1999/02/22-rdf-syntax-ns#"
   xmlns:svg="http://www.w3.org/2000/svg"
   xmlns="http://www.w3.org/2000/svg"
   xmlns:sodipodi="http://sodipodi.sourceforge.net/DTD/sodipodi-0.dtd"
   xmlns:inkscape="http://www.inkscape.org/namespaces/inkscape"
   version="1.1"
   width="4.2093248cm"
   height="2.3570571cm"
   viewBox="0 0 16572.145 9279.7528"
   id="svg1004"
   sodipodi:docname="capacitive-bind-example.svg"
   inkscape:version="0.92.4 (5da689c313, 2019-01-14)">
  <metadata
     id="metadata1010">
    <rdf:RDF>
      <cc:Work
         rdf:about="">
        <dc:format>image/svg+xml</dc:format>
        <dc:type
           rdf:resource="http://purl.org/dc/dcmitype/StillImage" />
        <dc:title>SVG Picture created as capacitive-bind-example.svg date 2021/04/28 22:02:56 </dc:title>
      </cc:Work>
    </rdf:RDF>
  </metadata>
  <defs
     id="defs1008" />
  <sodipodi:namedview
     pagecolor="#ffffff"
     bordercolor="#666666"
     borderopacity="1"
     objecttolerance="10"
     gridtolerance="10"
     guidetolerance="10"
     inkscape:pageopacity="0"
     inkscape:pageshadow="2"
     inkscape:window-width="1920"
     inkscape:window-height="1182"
     id="namedview1006"
     showgrid="false"
     fit-margin-top="0"
     fit-margin-left="0"
     fit-margin-right="0"
     fit-margin-bottom="0"
     inkscape:zoom="6.7278345"
     inkscape:cx="98.538422"
     inkscape:cy="44.605908"
     inkscape:window-x="0"
     inkscape:window-y="0"
     inkscape:window-maximized="1"
     inkscape:current-layer="svg1004" />
  <title
     id="title2">SVG Picture created as capacitive-bind-example.svg date 2021/04/28 22:02:56 </title>
  <desc
     id="desc4">Picture generated by Eeschema-SVG </desc>
  <g
     style="fill:#000000;fill-opacity:1;stroke:#000000;stroke-linecap:round;stroke-linejoin:round;stroke-opacity:1"
     id="g6"
     transform="translate(-29970,-26479.593)" />
  <g
     style="fill:#000000;fill-opacity:0;stroke:#000000;stroke-width:-10;stroke-linecap:round;stroke-linejoin:round;stroke-opacity:1"
     id="g8"
     transform="translate(-29970,-26479.593)" />
  <g
     style="fill:#840000;fill-opacity:0;stroke:#840000;stroke-width:-10;stroke-linecap:round;stroke-linejoin:round;stroke-opacity:1"
     id="g10"
     transform="translate(-29970,-26479.593)" />
  <g
     style="fill:#840000;fill-opacity:0;stroke:#840000;stroke-width:100;stroke-linecap:round;stroke-linejoin:round;stroke-opacity:1"
     id="g12"
     transform="translate(-29970,-26479.593)" />
  <g
     style="fill:#840000;fill-opacity:0;stroke:#840000;stroke-width:100;stroke-linecap:round;stroke-linejoin:round;stroke-opacity:1"
     id="g18"
     transform="translate(-29970,-26479.593)" />
  <g
     style="fill:#840000;fill-opacity:0;stroke:#840000;stroke-width:100;stroke-linecap:round;stroke-linejoin:round;stroke-opacity:1"
     id="g24"
     transform="translate(-29970,-26479.593)" />
  <g
     style="fill:#840000;fill-opacity:0;stroke:#840000;stroke-width:100;stroke-linecap:round;stroke-linejoin:round;stroke-opacity:1"
     id="g30"
     transform="translate(-29970,-26479.593)" />
  <g
     style="fill:#840000;fill-opacity:0;stroke:#840000;stroke-width:100;stroke-linecap:round;stroke-linejoin:round;stroke-opacity:1"
     id="g36"
     transform="translate(-29970,-26479.593)" />
  <g
     style="fill:#840000;fill-opacity:0;stroke:#840000;stroke-width:100;stroke-linecap:round;stroke-linejoin:round;stroke-opacity:1"
     id="g42"
     transform="translate(-29970,-26479.593)" />
  <g
     style="fill:#840000;fill-opacity:0;stroke:#840000;stroke-width:100;stroke-linecap:round;stroke-linejoin:round;stroke-opacity:1"
     id="g48"
     transform="translate(-29970,-26479.593)" />
  <g
     style="fill:#840000;fill-opacity:0;stroke:#840000;stroke-width:100;stroke-linecap:round;stroke-linejoin:round;stroke-opacity:1"
     id="g54"
     transform="translate(-29970,-26479.593)" />
  <g
     style="fill:#840000;fill-opacity:0;stroke:#840000;stroke-width:100;stroke-linecap:round;stroke-linejoin:round;stroke-opacity:1"
     id="g60"
     transform="translate(-29970,-26479.593)" />
  <g
     style="fill:#840000;fill-opacity:0;stroke:#840000;stroke-width:100;stroke-linecap:round;stroke-linejoin:round;stroke-opacity:1"
     id="g70"
     transform="translate(-29970,-26479.593)" />
  <g
     style="fill:#840000;fill-opacity:0;stroke:#840000;stroke-width:100;stroke-linecap:round;stroke-linejoin:round;stroke-opacity:1"
     id="g78"
     transform="translate(-29970,-26479.593)" />
  <g
     style="fill:#840000;fill-opacity:0;stroke:#840000;stroke-width:100;stroke-linecap:round;stroke-linejoin:round;stroke-opacity:1"
     id="g86"
     transform="translate(-29970,-26479.593)" />
  <g
     style="fill:#840000;fill-opacity:0;stroke:#840000;stroke-width:100;stroke-linecap:round;stroke-linejoin:round;stroke-opacity:1"
     id="g96"
     transform="translate(-29970,-26479.593)" />
  <g
     style="fill:#840000;fill-opacity:0;stroke:#840000;stroke-width:100;stroke-linecap:round;stroke-linejoin:round;stroke-opacity:1"
     id="g104"
     transform="translate(-29970,-26479.593)" />
  <g
     style="fill:#840000;fill-opacity:0;stroke:#840000;stroke-width:100;stroke-linecap:round;stroke-linejoin:round;stroke-opacity:1"
     id="g112"
     transform="translate(-29970,-26479.593)" />
  <g
     style="fill:#840000;fill-opacity:0;stroke:#840000;stroke-width:100;stroke-linecap:round;stroke-linejoin:round;stroke-opacity:1"
     id="g118"
     transform="translate(-29970,-26479.593)" />
  <g
     style="fill:#840000;fill-opacity:0;stroke:#840000;stroke-width:100;stroke-linecap:round;stroke-linejoin:round;stroke-opacity:1"
     id="g124"
     transform="translate(-29970,-26479.593)" />
  <g
     style="fill:#840000;fill-opacity:0;stroke:#840000;stroke-width:100;stroke-linecap:round;stroke-linejoin:round;stroke-opacity:1"
     id="g130"
     transform="translate(-29970,-26479.593)" />
  <g
     style="fill:#840000;fill-opacity:0;stroke:#840000;stroke-width:100;stroke-linecap:round;stroke-linejoin:round;stroke-opacity:1"
     id="g136"
     transform="translate(-29970,-26479.593)" />
  <g
     style="fill:#840000;fill-opacity:0;stroke:#840000;stroke-width:100;stroke-linecap:round;stroke-linejoin:round;stroke-opacity:1"
     id="g142"
     transform="translate(-29970,-26479.593)" />
  <g
     style="fill:#840000;fill-opacity:0;stroke:#840000;stroke-width:100;stroke-linecap:round;stroke-linejoin:round;stroke-opacity:1"
     id="g152"
     transform="translate(-29970,-26479.593)" />
  <g
     style="fill:#840000;fill-opacity:0;stroke:#840000;stroke-width:100;stroke-linecap:round;stroke-linejoin:round;stroke-opacity:1"
     id="g160"
     transform="translate(-29970,-26479.593)" />
  <g
     style="fill:#840000;fill-opacity:0;stroke:#840000;stroke-width:100;stroke-linecap:round;stroke-linejoin:round;stroke-opacity:1"
     id="g168"
     transform="translate(-29970,-26479.593)" />
  <g
     style="fill:#840000;fill-opacity:0;stroke:#840000;stroke-width:100;stroke-linecap:round;stroke-linejoin:round;stroke-opacity:1"
     id="g178"
     transform="translate(-29970,-26479.593)" />
  <g
     style="fill:#840000;fill-opacity:0;stroke:#840000;stroke-width:100;stroke-linecap:round;stroke-linejoin:round;stroke-opacity:1"
     id="g186"
     transform="translate(-29970,-26479.593)" />
  <g
     style="fill:#840000;fill-opacity:0;stroke:#840000;stroke-width:100;stroke-linecap:round;stroke-linejoin:round;stroke-opacity:1"
     id="g194"
     transform="translate(-29970,-26479.593)" />
  <g
     style="fill:#840000;fill-opacity:0;stroke:#840000;stroke-width:100;stroke-linecap:round;stroke-linejoin:round;stroke-opacity:1"
     id="g200"
     transform="translate(-29970,-26479.593)" />
  <g
     style="fill:#840000;fill-opacity:0;stroke:#840000;stroke-width:100;stroke-linecap:round;stroke-linejoin:round;stroke-opacity:1"
     id="g206"
     transform="translate(-29970,-26479.593)" />
  <g
     style="fill:#840000;fill-opacity:0;stroke:#840000;stroke-width:100;stroke-linecap:round;stroke-linejoin:round;stroke-opacity:1"
     id="g212"
     transform="translate(-29970,-26479.593)" />
  <g
     style="fill:#840000;fill-opacity:0;stroke:#840000;stroke-width:100;stroke-linecap:round;stroke-linejoin:round;stroke-opacity:1"
     id="g222"
     transform="translate(-29970,-26479.593)" />
  <g
     style="fill:#840000;fill-opacity:0;stroke:#840000;stroke-width:100;stroke-linecap:round;stroke-linejoin:round;stroke-opacity:1"
     id="g230"
     transform="translate(-29970,-26479.593)" />
  <g
     style="fill:#840000;fill-opacity:0;stroke:#840000;stroke-width:100;stroke-linecap:round;stroke-linejoin:round;stroke-opacity:1"
     id="g238"
     transform="translate(-29970,-26479.593)" />
  <g
     style="fill:#840000;fill-opacity:0;stroke:#840000;stroke-width:100;stroke-linecap:round;stroke-linejoin:round;stroke-opacity:1"
     id="g246"
     transform="translate(-29970,-26479.593)" />
  <g
     style="fill:#840000;fill-opacity:0;stroke:#840000;stroke-width:100;stroke-linecap:round;stroke-linejoin:round;stroke-opacity:1"
     id="g252"
     transform="translate(-29970,-26479.593)" />
  <g
     style="fill:#840000;fill-opacity:0;stroke:#840000;stroke-width:100;stroke-linecap:round;stroke-linejoin:round;stroke-opacity:1"
     id="g258"
     transform="translate(-29970,-26479.593)" />
  <g
     style="fill:#840000;fill-opacity:0;stroke:#840000;stroke-width:100;stroke-linecap:round;stroke-linejoin:round;stroke-opacity:1"
     id="g264"
     transform="translate(-29970,-26479.593)" />
  <g
     style="fill:#840000;fill-opacity:0;stroke:#840000;stroke-width:100;stroke-linecap:round;stroke-linejoin:round;stroke-opacity:1"
     id="g274"
     transform="translate(-29970,-26479.593)" />
  <g
     style="fill:#840000;fill-opacity:0;stroke:#840000;stroke-width:100;stroke-linecap:round;stroke-linejoin:round;stroke-opacity:1"
     id="g282"
     transform="translate(-29970,-26479.593)" />
  <g
     style="fill:#840000;fill-opacity:0;stroke:#840000;stroke-width:100;stroke-linecap:round;stroke-linejoin:round;stroke-opacity:1"
     id="g290"
     transform="translate(-29970,-26479.593)" />
  <g
     style="fill:#840000;fill-opacity:0;stroke:#840000;stroke-width:100;stroke-linecap:round;stroke-linejoin:round;stroke-opacity:1"
     id="g298"
     transform="translate(-29970,-26479.593)" />
  <g
     style="fill:#840000;fill-opacity:0;stroke:#840000;stroke-width:100;stroke-linecap:round;stroke-linejoin:round;stroke-opacity:1"
     id="g320"
     transform="translate(-29970,-26479.593)" />
  <g
     style="fill:#840000;fill-opacity:0;stroke:#840000;stroke-width:100;stroke-linecap:round;stroke-linejoin:round;stroke-opacity:1"
     id="g326"
     transform="translate(-29970,-26479.593)" />
  <g
     style="fill:#840000;fill-opacity:0;stroke:#840000;stroke-width:100;stroke-linecap:round;stroke-linejoin:round;stroke-opacity:1"
     id="g466"
     transform="translate(-29970,-26479.593)" />
  <g
     style="fill:#840000;fill-opacity:0;stroke:#840000;stroke-width:100;stroke-linecap:round;stroke-linejoin:round;stroke-opacity:1"
     id="g472"
     transform="translate(-29970,-26479.593)" />
  <g
     style="fill:#840000;fill-opacity:0;stroke:#840000;stroke-width:100;stroke-linecap:round;stroke-linejoin:round;stroke-opacity:1"
     id="g490"
     transform="translate(-29970,-26479.593)" />
  <g
     style="fill:#840000;fill-opacity:0;stroke:#840000;stroke-width:100;stroke-linecap:round;stroke-linejoin:round;stroke-opacity:1"
     id="g518"
     transform="translate(-29970,-26479.593)" />
  <g
     style="fill:#840000;fill-opacity:0;stroke:#840000;stroke-width:100;stroke-linecap:round;stroke-linejoin:round;stroke-opacity:1"
     id="g544"
     transform="translate(-29970,-26479.593)" />
  <g
     style="fill:#840000;fill-opacity:0;stroke:#840000;stroke-width:100;stroke-linecap:round;stroke-linejoin:round;stroke-opacity:1"
     id="g550"
     transform="translate(-29970,-26479.593)" />
  <g
     style="fill:#840000;fill-opacity:0;stroke:#840000;stroke-width:100;stroke-linecap:round;stroke-linejoin:round;stroke-opacity:1"
     id="g576"
     transform="translate(-29970,-26479.593)" />
  <g
     style="fill:#840000;fill-opacity:0;stroke:#840000;stroke-width:100;stroke-linecap:round;stroke-linejoin:round;stroke-opacity:1"
     id="g684"
     transform="translate(-29970,-26479.593)" />
  <g
     style="fill:#840000;fill-opacity:0;stroke:#840000;stroke-width:100;stroke-linecap:round;stroke-linejoin:round;stroke-opacity:1"
     id="g690"
     transform="translate(-29970,-26479.593)" />
  <g
     style="fill:#840000;fill-opacity:0;stroke:#840000;stroke-width:100;stroke-linecap:round;stroke-linejoin:round;stroke-opacity:1"
     id="g716"
     transform="translate(-29970,-26479.593)" />
  <g
     style="fill:#840000;fill-opacity:0;stroke:#840000;stroke-width:100;stroke-linecap:round;stroke-linejoin:round;stroke-opacity:1"
     id="g722"
     transform="translate(-29970,-26479.593)" />
  <g
     style="fill:#840000;fill-opacity:0;stroke:#840000;stroke-width:0;stroke-linecap:round;stroke-linejoin:round;stroke-opacity:1"
     id="g766"
     transform="translate(-29970,-26479.593)">
    <g
       id="g728" />
    <g
       style="fill:#840000;fill-opacity:0;stroke:#840000;stroke-width:100;stroke-linecap:round;stroke-linejoin:round;stroke-opacity:1"
       id="g732">
      <rect
         x="35100"
         y="29000"
         width="800"
         height="2000"
         rx="0"
         id="rect730" />
    </g>
    <g
       style="fill:#840000;fill-opacity:0;stroke:#840000;stroke-width:60;stroke-linecap:round;stroke-linejoin:round;stroke-opacity:1"
       id="g738">
      <path
         d="m 35500,29000 v -500"
         id="path734"
         inkscape:connector-curvature="0" />
      <path
         d="m 35500,31000 v 500"
         id="path736"
         inkscape:connector-curvature="0" />
    </g>
    <g
       style="fill:#008484;fill-opacity:0;stroke:#008484;stroke-width:60;stroke-linecap:round;stroke-linejoin:round;stroke-opacity:1"
       id="g764">
      <text
         x="36720"
         y="29810"
         textLength="1040"
         font-size="660"
         lengthAdjust="spacingAndGlyphs"
         id="text740"
         style="font-size:660px;text-anchor:middle;opacity:0">R1</text>
      <path
         d="m 36630,29780 -160,-240"
         id="path742"
         inkscape:connector-curvature="0" />
      <path
         d="m 36350,29780 v -500 h 190 l 40,30 30,20 20,50 v 70 l -20,50 -30,20 -40,20 h -190"
         id="path744"
         inkscape:connector-curvature="0" />
      <path
         d="m 37110,29780 h -290"
         id="path746"
         inkscape:connector-curvature="0" />
      <path
         d="m 36970,29780 v -500 l -50,70 -50,50 -50,20"
         id="path748"
         inkscape:connector-curvature="0" />
      <text
         x="36910"
         y="30720"
         textLength="1420"
         font-size="660"
         lengthAdjust="spacingAndGlyphs"
         id="text750"
         style="font-size:660px;text-anchor:middle;opacity:0">10k</text>
      <path
         d="m 36610,30690 h -290"
         id="path752"
         inkscape:connector-curvature="0" />
      <path
         d="m 36460,30690 v -500 l -40,70 -50,50 -50,20"
         id="path754"
         inkscape:connector-curvature="0" />
      <path
         d="m 36920,30190 h 40 l 50,30 30,20 20,50 20,90 v 120 l -20,100 -20,40 -30,30 -50,20 h -40 l -50,-20 -20,-30 -30,-40 -20,-100 v -120 l 20,-90 30,-50 20,-20 50,-30"
         id="path756"
         inkscape:connector-curvature="0" />
      <path
         d="m 37300,30690 v -500"
         id="path758"
         inkscape:connector-curvature="0" />
      <path
         d="m 37350,30500 140,190"
         id="path760"
         inkscape:connector-curvature="0" />
      <path
         d="m 37490,30360 -190,190"
         id="path762"
         inkscape:connector-curvature="0" />
    </g>
  </g>
  <g
     style="fill:#008484;fill-opacity:0;stroke:#008484;stroke-width:0;stroke-linecap:round;stroke-linejoin:round;stroke-opacity:1"
     id="g808"
     transform="translate(-29970,-26479.593)">
    <g
       id="g768" />
    <g
       style="fill:#840000;fill-opacity:0;stroke:#840000;stroke-width:0;stroke-linecap:round;stroke-linejoin:round;stroke-opacity:1"
       id="g770" />
    <g
       style="fill:#840000;fill-opacity:0;stroke:#840000;stroke-width:100;stroke-linecap:round;stroke-linejoin:round;stroke-opacity:1"
       id="g774">
      <rect
         x="40100"
         y="29000"
         width="800"
         height="2000"
         rx="0"
         id="rect772" />
    </g>
    <g
       style="fill:#840000;fill-opacity:0;stroke:#840000;stroke-width:60;stroke-linecap:round;stroke-linejoin:round;stroke-opacity:1"
       id="g780">
      <path
         d="m 40500,29000 v -500"
         id="path776"
         inkscape:connector-curvature="0" />
      <path
         d="m 40500,31000 v 500"
         id="path778"
         inkscape:connector-curvature="0" />
    </g>
    <g
       style="fill:#008484;fill-opacity:0;stroke:#008484;stroke-width:60;stroke-linecap:round;stroke-linejoin:round;stroke-opacity:1"
       id="g806">
      <text
         x="41720"
         y="29810"
         textLength="1040"
         font-size="660"
         lengthAdjust="spacingAndGlyphs"
         id="text782"
         style="font-size:660px;text-anchor:middle;opacity:0">R2</text>
      <path
         d="m 41630,29780 -160,-240"
         id="path784"
         inkscape:connector-curvature="0" />
      <path
         d="m 41350,29780 v -500 h 190 l 40,30 30,20 20,50 v 70 l -20,50 -30,20 -40,20 h -190"
         id="path786"
         inkscape:connector-curvature="0" />
      <path
         d="m 41820,29330 30,-20 40,-30 h 120 l 50,30 20,20 30,50 v 40 l -30,80 -280,280 h 310"
         id="path788"
         inkscape:connector-curvature="0" />
      <text
         x="42140"
         y="30720"
         textLength="1890"
         font-size="660"
         lengthAdjust="spacingAndGlyphs"
         id="text790"
         style="font-size:660px;text-anchor:middle;opacity:0">100k</text>
      <path
         d="m 41600,30690 h -290"
         id="path792"
         inkscape:connector-curvature="0" />
      <path
         d="m 41460,30690 v -500 l -50,70 -50,50 -50,20"
         id="path794"
         inkscape:connector-curvature="0" />
      <path
         d="m 41910,30190 h 50 l 40,30 30,20 20,50 30,90 v 120 l -30,100 -20,40 -30,30 -40,20 h -50 l -50,-20 -20,-30 -30,-40 -20,-100 v -120 l 20,-90 30,-50 20,-20 50,-30"
         id="path796"
         inkscape:connector-curvature="0" />
      <path
         d="m 42390,30190 h 40 l 50,30 20,20 30,50 20,90 v 120 l -20,100 -30,40 -20,30 -50,20 h -40 l -50,-20 -30,-30 -20,-40 -20,-100 v -120 l 20,-90 20,-50 30,-20 50,-30"
         id="path798"
         inkscape:connector-curvature="0" />
      <path
         d="m 42770,30690 v -500"
         id="path800"
         inkscape:connector-curvature="0" />
      <path
         d="m 42810,30500 150,190"
         id="path802"
         inkscape:connector-curvature="0" />
      <path
         d="m 42960,30360 -190,190"
         id="path804"
         inkscape:connector-curvature="0" />
    </g>
  </g>
  <g
     style="fill:#008484;fill-opacity:0;stroke:#008484;stroke-width:0;stroke-linecap:round;stroke-linejoin:round;stroke-opacity:1"
     id="g832"
     transform="translate(-29970,-26479.593)">
    <g
       id="g810" />
    <g
       style="fill:#840000;fill-opacity:0;stroke:#840000;stroke-width:0;stroke-linecap:round;stroke-linejoin:round;stroke-opacity:1"
       id="g812" />
    <g
       style="fill:#840000;fill-opacity:0;stroke:#840000;stroke-width:60;stroke-linecap:round;stroke-linejoin:round;stroke-opacity:1"
       id="g820">
      <path
         style="fill:none;fill-opacity:0;stroke:#840000;stroke-width:60;stroke-linecap:round;stroke-linejoin:round;stroke-opacity:1"
         d="m 35200,28000 300,-500"
         id="path814"
         inkscape:connector-curvature="0" />
      <path
         style="fill:none;fill-opacity:0;stroke:#840000;stroke-width:60;stroke-linecap:round;stroke-linejoin:round;stroke-opacity:1"
         d="M 35500,28500 V 27500"
         id="path816"
         inkscape:connector-curvature="0" />
      <path
         style="fill:none;fill-opacity:0;stroke:#840000;stroke-width:60;stroke-linecap:round;stroke-linejoin:round;stroke-opacity:1"
         d="m 35500,27500 300,500"
         id="path818"
         inkscape:connector-curvature="0" />
    </g>
    <g
       style="fill:#008484;fill-opacity:0;stroke:#008484;stroke-width:60;stroke-linecap:round;stroke-linejoin:round;stroke-opacity:1"
       id="g830">
      <text
         x="35650"
         y="27040"
         textLength="1490"
         font-size="660"
         lengthAdjust="spacingAndGlyphs"
         id="text822"
         style="font-size:660px;text-anchor:middle;opacity:0">VCC</text>
      <path
         d="m 34980,26510 170,500 160,-500"
         id="path824"
         inkscape:connector-curvature="0" />
      <path
         d="m 35760,26960 -20,30 -70,20 h -50 l -70,-20 -50,-50 -20,-50 -30,-90 v -70 l 30,-100 20,-50 50,-40 70,-30 h 50 l 70,30 20,20"
         id="path826"
         inkscape:connector-curvature="0" />
      <path
         d="m 36260,26960 -20,30 -70,20 h -50 l -70,-20 -50,-50 -20,-50 -30,-90 v -70 l 30,-100 20,-50 50,-40 70,-30 h 50 l 70,30 20,20"
         id="path828"
         inkscape:connector-curvature="0" />
    </g>
  </g>
  <g
     style="fill:#008484;fill-opacity:0;stroke:#008484;stroke-width:0;stroke-linecap:round;stroke-linejoin:round;stroke-opacity:1"
     id="g856"
     transform="translate(-29970,-26479.593)">
    <g
       id="g834" />
    <g
       style="fill:#840000;fill-opacity:0;stroke:#840000;stroke-width:0;stroke-linecap:round;stroke-linejoin:round;stroke-opacity:1"
       id="g836" />
    <g
       style="fill:#840000;fill-opacity:0;stroke:#840000;stroke-width:60;stroke-linecap:round;stroke-linejoin:round;stroke-opacity:1"
       id="g844">
      <path
         style="fill:none;fill-opacity:0;stroke:#840000;stroke-width:60;stroke-linecap:round;stroke-linejoin:round;stroke-opacity:1"
         d="m 40200,28000 300,-500"
         id="path838"
         inkscape:connector-curvature="0" />
      <path
         style="fill:none;fill-opacity:0;stroke:#840000;stroke-width:60;stroke-linecap:round;stroke-linejoin:round;stroke-opacity:1"
         d="M 40500,28500 V 27500"
         id="path840"
         inkscape:connector-curvature="0" />
      <path
         style="fill:none;fill-opacity:0;stroke:#840000;stroke-width:60;stroke-linecap:round;stroke-linejoin:round;stroke-opacity:1"
         d="m 40500,27500 300,500"
         id="path842"
         inkscape:connector-curvature="0" />
    </g>
    <g
       style="fill:#008484;fill-opacity:0;stroke:#008484;stroke-width:60;stroke-linecap:round;stroke-linejoin:round;stroke-opacity:1"
       id="g854">
      <text
         x="40650"
         y="27040"
         textLength="1490"
         font-size="660"
         lengthAdjust="spacingAndGlyphs"
         id="text846"
         style="font-size:660px;text-anchor:middle;opacity:0">VCC</text>
      <path
         d="m 39980,26510 170,500 160,-500"
         id="path848"
         inkscape:connector-curvature="0" />
      <path
         d="m 40760,26960 -20,30 -70,20 h -50 l -70,-20 -50,-50 -20,-50 -30,-90 v -70 l 30,-100 20,-50 50,-40 70,-30 h 50 l 70,30 20,20"
         id="path850"
         inkscape:connector-curvature="0" />
      <path
         d="m 41260,26960 -20,30 -70,20 h -50 l -70,-20 -50,-50 -20,-50 -30,-90 v -70 l 30,-100 20,-50 50,-40 70,-30 h 50 l 70,30 20,20"
         id="path852"
         inkscape:connector-curvature="0" />
    </g>
  </g>
  <g
     style="fill:#008484;fill-opacity:0;stroke:#008484;stroke-width:0;stroke-linecap:round;stroke-linejoin:round;stroke-opacity:1"
     id="g898"
     transform="translate(-29970,-26479.593)">
    <g
       id="g858" />
    <g
       style="fill:#840000;fill-opacity:0;stroke:#840000;stroke-width:0;stroke-linecap:round;stroke-linejoin:round;stroke-opacity:1"
       id="g860" />
    <g
       style="fill:#840000;fill-opacity:0;stroke:#840000;stroke-width:200;stroke-linecap:round;stroke-linejoin:round;stroke-opacity:1"
       id="g866">
      <path
         style="fill:none;fill-opacity:0;stroke:#840000;stroke-width:200;stroke-linecap:round;stroke-linejoin:round;stroke-opacity:1"
         d="M 37700,33800 V 32200"
         id="path862"
         inkscape:connector-curvature="0" />
      <path
         style="fill:none;fill-opacity:0;stroke:#840000;stroke-width:200;stroke-linecap:round;stroke-linejoin:round;stroke-opacity:1"
         d="M 38300,33800 V 32200"
         id="path864"
         inkscape:connector-curvature="0" />
    </g>
    <g
       style="fill:#840000;fill-opacity:0;stroke:#840000;stroke-width:60;stroke-linecap:round;stroke-linejoin:round;stroke-opacity:1"
       id="g872">
      <path
         d="m 38400,33000 h 1100"
         id="path868"
         inkscape:connector-curvature="0" />
      <path
         d="M 37600,33000 H 36500"
         id="path870"
         inkscape:connector-curvature="0" />
    </g>
    <g
       style="fill:#008484;fill-opacity:0;stroke:#008484;stroke-width:60;stroke-linecap:round;stroke-linejoin:round;stroke-opacity:1"
       id="g896">
      <text
         x="38000"
         y="34720"
         textLength="1040"
         font-size="660"
         lengthAdjust="spacingAndGlyphs"
         id="text874"
         style="font-size:660px;text-anchor:middle;opacity:0">C1</text>
      <path
         d="m 37910,34640 -20,30 -70,20 h -50 l -70,-20 -50,-50 -20,-50 -30,-90 v -70 l 30,-100 20,-50 50,-40 70,-30 h 50 l 70,30 20,20"
         id="path876"
         inkscape:connector-curvature="0" />
      <path
         d="m 38390,34690 h -290"
         id="path878"
         inkscape:connector-curvature="0" />
      <path
         d="m 38250,34690 v -500 l -50,70 -50,50 -50,20"
         id="path880"
         inkscape:connector-curvature="0" />
      <text
         x="38000"
         y="35720"
         textLength="1940"
         font-size="660"
         lengthAdjust="spacingAndGlyphs"
         id="text882"
         style="font-size:660px;text-anchor:middle;opacity:0">100n</text>
      <path
         d="m 37440,35690 h -290"
         id="path884"
         inkscape:connector-curvature="0" />
      <path
         d="m 37290,35690 v -500 l -40,70 -50,50 -50,20"
         id="path886"
         inkscape:connector-curvature="0" />
      <path
         d="m 37750,35190 h 40 l 50,30 20,20 30,50 20,90 v 120 l -20,100 -30,40 -20,30 -50,20 h -40 l -50,-20 -30,-30 -20,-40 -20,-100 v -120 l 20,-90 20,-50 30,-20 50,-30"
         id="path888"
         inkscape:connector-curvature="0" />
      <path
         d="m 38220,35190 h 50 l 50,30 20,20 20,50 30,90 v 120 l -30,100 -20,40 -20,30 -50,20 h -50 l -50,-20 -20,-30 -20,-40 -30,-100 v -120 l 30,-90 20,-50 20,-20 50,-30"
         id="path890"
         inkscape:connector-curvature="0" />
      <path
         d="m 38600,35360 v 330"
         id="path892"
         inkscape:connector-curvature="0" />
      <path
         d="m 38600,35410 30,-30 40,-20 h 70 l 50,20 30,50 v 260"
         id="path894"
         inkscape:connector-curvature="0" />
    </g>
  </g>
  <g
     style="fill:#008484;fill-opacity:0;stroke:#008484;stroke-width:0;stroke-linecap:round;stroke-linejoin:round;stroke-opacity:1"
     id="g938"
     transform="translate(-29970,-26479.593)">
    <g
       id="g900" />
    <g
       style="fill:#840000;fill-opacity:0;stroke:#840000;stroke-width:0;stroke-linecap:round;stroke-linejoin:round;stroke-opacity:1"
       id="g902" />
    <g
       style="fill:#840000;fill-opacity:1;stroke:#840000;stroke-width:60;stroke-linecap:round;stroke-linejoin:round;stroke-opacity:1"
       id="g906">
      <rect
         x="30000"
         y="32950"
         width="340"
         height="100"
         rx="0"
         id="rect904" />
    </g>
    <g
       style="fill:#840000;fill-opacity:0;stroke:#840000;stroke-width:60;stroke-linecap:round;stroke-linejoin:round;stroke-opacity:1"
       id="g918">
      <path
         style="fill:none;fill-opacity:0;stroke:#840000;stroke-width:60;stroke-linecap:round;stroke-linejoin:round;stroke-opacity:1"
         d="m 30500,33000 h -160"
         id="path908"
         inkscape:connector-curvature="0" />
      <path
         d="m 30500,33000 h 1500"
         id="path910"
         inkscape:connector-curvature="0" />
      <text
         x="31250"
         y="32900"
         textLength="540"
         font-size="660"
         lengthAdjust="spacingAndGlyphs"
         id="text912"
         style="font-size:660px;text-anchor:middle;opacity:0">1</text>
      <path
         d="m 31390,32870 h -290"
         id="path914"
         inkscape:connector-curvature="0" />
      <path
         d="m 31250,32870 v -500 l -50,70 -50,50 -50,20"
         id="path916"
         inkscape:connector-curvature="0" />
    </g>
    <g
       style="fill:#008484;fill-opacity:0;stroke:#008484;stroke-width:60;stroke-linecap:round;stroke-linejoin:round;stroke-opacity:1"
       id="g936">
      <text
         x="31000"
         y="31220"
         textLength="920"
         font-size="660"
         lengthAdjust="spacingAndGlyphs"
         id="text920"
         style="font-size:660px;text-anchor:middle;opacity:0">J1</text>
      <path
         d="m 30830,30690 v 360 l -30,70 -40,50 -70,20 h -50"
         id="path922"
         inkscape:connector-curvature="0" />
      <path
         d="m 31330,31190 h -290"
         id="path924"
         inkscape:connector-curvature="0" />
      <path
         d="m 31190,31190 v -500 l -50,70 -50,50 -50,20"
         id="path926"
         inkscape:connector-curvature="0" />
      <text
         x="31000"
         y="32220"
         textLength="800"
         font-size="660"
         lengthAdjust="spacingAndGlyphs"
         id="text928"
         style="font-size:660px;text-anchor:middle;opacity:0">IR</text>
      <path
         d="m 30750,32190 v -500"
         id="path930"
         inkscape:connector-curvature="0" />
      <path
         d="m 31270,32190 -170,-240"
         id="path932"
         inkscape:connector-curvature="0" />
      <path
         d="m 30980,32190 v -500 h 190 l 50,30 30,20 20,50 v 70 l -20,50 -30,20 -50,20 h -190"
         id="path934"
         inkscape:connector-curvature="0" />
    </g>
  </g>
  <g
     style="fill:#008484;fill-opacity:0;stroke:#008484;stroke-width:0;stroke-linecap:round;stroke-linejoin:round;stroke-opacity:1"
     id="g974"
     transform="translate(-29970,-26479.593)">
    <g
       id="g940" />
    <g
       style="fill:#840000;fill-opacity:0;stroke:#840000;stroke-width:0;stroke-linecap:round;stroke-linejoin:round;stroke-opacity:1"
       id="g942" />
    <g
       style="fill:#840000;fill-opacity:0;stroke:#840000;stroke-width:60;stroke-linecap:round;stroke-linejoin:round;stroke-opacity:1"
       id="g956">
      <path
         d="m 45999.7,32800 a 200,200 0 0 0 0,400"
         id="path944"
         inkscape:connector-curvature="0" />
      <path
         style="fill:none;fill-opacity:0;stroke:#840000;stroke-width:60;stroke-linecap:round;stroke-linejoin:round;stroke-opacity:1"
         d="m 45500,33000 h 300"
         id="path946"
         inkscape:connector-curvature="0" />
      <path
         d="M 45500,33000 H 44000"
         id="path948"
         inkscape:connector-curvature="0" />
      <text
         x="44750"
         y="32900"
         textLength="540"
         font-size="660"
         lengthAdjust="spacingAndGlyphs"
         id="text950"
         style="font-size:660px;text-anchor:middle;opacity:0">1</text>
      <path
         d="m 44890,32870 h -290"
         id="path952"
         inkscape:connector-curvature="0" />
      <path
         d="m 44750,32870 v -500 l -50,70 -50,50 -50,20"
         id="path954"
         inkscape:connector-curvature="0" />
    </g>
    <g
       style="fill:#008484;fill-opacity:0;stroke:#008484;stroke-width:60;stroke-linecap:round;stroke-linejoin:round;stroke-opacity:1"
       id="g972">
      <text
         x="45960"
         y="31270"
         textLength="920"
         font-size="660"
         lengthAdjust="spacingAndGlyphs"
         id="text958"
         style="font-size:660px;text-anchor:middle;opacity:0">J2</text>
      <path
         d="m 45790,30740 v 360 l -30,70 -40,50 -70,20 h -50"
         id="path960"
         inkscape:connector-curvature="0" />
      <path
         d="m 46000,30790 30,-20 40,-30 h 120 l 50,30 20,20 30,50 v 40 l -30,80 -280,280 h 310"
         id="path962"
         inkscape:connector-curvature="0" />
      <text
         x="45790"
         y="32270"
         textLength="1580"
         font-size="660"
         lengthAdjust="spacingAndGlyphs"
         id="text964"
         style="font-size:660px;text-anchor:middle;opacity:0">CPU</text>
      <path
         d="m 45430,32190 -30,30 -70,20 h -40 l -80,-20 -40,-50 -30,-50 -20,-90 v -70 l 20,-100 30,-50 40,-40 80,-30 h 40 l 70,30 30,20"
         id="path966"
         inkscape:connector-curvature="0" />
      <path
         d="m 45640,32240 v -500 h 190 l 50,30 20,20 30,50 v 70 l -30,50 -20,20 -50,20 h -190"
         id="path968"
         inkscape:connector-curvature="0" />
      <path
         d="m 46140,31740 v 410 l 30,40 20,30 50,20 h 90 l 50,-20 20,-30 30,-40 v -410"
         id="path970"
         inkscape:connector-curvature="0" />
    </g>
  </g>
  <g
     style="fill:#008484;fill-opacity:0;stroke:#008484;stroke-width:60;stroke-linecap:round;stroke-linejoin:round;stroke-opacity:1"
     id="g976"
     transform="translate(-29970,-26479.593)" />
  <g
     style="fill:#008400;fill-opacity:0;stroke:#008400;stroke-width:60;stroke-linecap:round;stroke-linejoin:round;stroke-opacity:1"
     id="g990"
     transform="translate(-29970,-26479.593)">
    <path
       d="M 36500,33000 H 35500"
       id="path978"
       inkscape:connector-curvature="0" />
    <path
       d="M 35500,33000 V 31500"
       id="path980"
       inkscape:connector-curvature="0" />
    <path
       d="m 39500,33000 h 1000"
       id="path982"
       inkscape:connector-curvature="0" />
    <path
       d="M 40500,33000 V 31500"
       id="path984"
       inkscape:connector-curvature="0" />
    <path
       d="m 32000,33000 h 3500"
       id="path986"
       inkscape:connector-curvature="0" />
    <path
       d="m 40500,33000 h 3500"
       id="path988"
       inkscape:connector-curvature="0" />
  </g>
  <g
     style="fill:#008400;fill-opacity:0;stroke:#008400;stroke-width:0;stroke-linecap:round;stroke-linejoin:round;stroke-opacity:1"
     id="g992"
     transform="translate(-29970,-26479.593)" />
  <g
     style="fill:#008400;fill-opacity:1;stroke:#008400;stroke-width:100;stroke-linecap:round;stroke-linejoin:round;stroke-opacity:1"
     id="g996"
     transform="translate(-29970,-26479.593)">
    <circle
       cx="35500"
       cy="33000"
       r="200"
       id="circle994" />
  </g>
  <g
     style="fill:#008400;fill-opacity:1;stroke:#008400;stroke-width:0;stroke-linecap:round;stroke-linejoin:round;stroke-opacity:1"
     id="g998"
     transform="translate(-29970,-26479.593)" />
  <g
     style="fill:#008400;fill-opacity:1;stroke:#008400;stroke-width:100;stroke-linecap:round;stroke-linejoin:round;stroke-opacity:1"
     id="g1002"
     transform="translate(-29970,-26479.593)">
    <circle
       cx="40500"
       cy="33000"
       r="200"
       id="circle1000" />
  </g>
</svg>
